<?xml version="1.0" encoding="UTF-8" standalone="no"?>
<!-- Created with Inkscape (http://www.inkscape.org/) -->

<svg
   width="210mm"
   height="297mm"
   viewBox="0 0 210 297"
   version="1.1"
   id="svg5"
   inkscape:version="1.1.2 (1:1.1+202202050950+0a00cf5339)"
   sodipodi:docname="logoDrawings.svg"
   xmlns:inkscape="http://www.inkscape.org/namespaces/inkscape"
   xmlns:sodipodi="http://sodipodi.sourceforge.net/DTD/sodipodi-0.dtd"
   xmlns="http://www.w3.org/2000/svg"
   xmlns:svg="http://www.w3.org/2000/svg">
  <sodipodi:namedview
     id="namedview7"
     pagecolor="#505050"
     bordercolor="#eeeeee"
     borderopacity="1"
     inkscape:pageshadow="0"
     inkscape:pageopacity="0"
     inkscape:pagecheckerboard="0"
     inkscape:document-units="mm"
     showgrid="false"
     inkscape:zoom="0.52284039"
     inkscape:cx="161.6172"
     inkscape:cy="498.24001"
     inkscape:window-width="1920"
     inkscape:window-height="1015"
     inkscape:window-x="0"
     inkscape:window-y="0"
     inkscape:window-maximized="1"
     inkscape:current-layer="layer1" />
  <defs
     id="defs2">
    <inkscape:path-effect
       effect="spiro"
       id="path-effect15569"
       is_visible="true"
       lpeversion="1" />
    <inkscape:path-effect
       effect="spiro"
       id="path-effect15565"
       is_visible="true"
       lpeversion="1" />
    <inkscape:path-effect
       effect="spiro"
       id="path-effect15561"
       is_visible="true"
       lpeversion="1" />
  </defs>
  <g
     inkscape:label="Layer 1"
     inkscape:groupmode="layer"
     id="layer1">
    <path
       style="fill:none;stroke:#000000;stroke-width:0.264583px;stroke-linecap:butt;stroke-linejoin:miter;stroke-opacity:1"
       d="m -325.0525,-436.7372 c -7.63613,7.12041 -15.70121,13.78075 -24.13697,19.93288 -2.75572,2.00972 -5.55502,3.96845 -8.15078,6.18091 -3.03728,2.58877 -5.77524,5.5074 -8.45151,8.46787 -2.57011,2.84303 -5.09021,5.73127 -7.55875,8.66293"
       id="path15559"
       inkscape:path-effect="#path-effect15561"
       inkscape:original-d="m -325.0525,-436.7372 c -8.02396,6.66104 -15.93592,13.48621 -24.13697,19.93288 -2.68069,2.10724 -5.59398,3.92496 -8.15078,6.18091 -2.99034,2.63847 -5.63333,5.64626 -8.45151,8.46787 -2.6049,2.60806 -5.84974,5.24473 -7.55875,8.66293" />
    <rect
       style="fill:#ff0000;fill-opacity:0.537238;stroke-width:1.4392;paint-order:markers stroke fill"
       id="rect15641"
       width="104.18509"
       height="22.811453"
       x="-579.60791"
       y="-652.54901"
       transform="matrix(0.84493356,-0.53487127,0,1,0,0)" />
    <rect
       style="fill:#ff0000;fill-opacity:0.537238;stroke-width:1.4392;paint-order:markers stroke fill"
       id="rect15723"
       width="104.18509"
       height="22.811453"
       x="-579.60791"
       y="-541.09784"
       transform="matrix(0.84493356,-0.53487127,0,1,0,0)" />
    <rect
       style="fill:#ff0000;fill-opacity:0.537238;stroke-width:1.4392;paint-order:markers stroke fill"
       id="rect15725"
       width="104.18509"
       height="22.811453"
       x="-579.60791"
       y="9.7063284"
       transform="matrix(0.84493356,0.53487127,0,-1,0,0)"
       inkscape:transform-center-y="45.922313" />
    <path
       id="rect15727"
       style="fill:#ff0000;fill-opacity:0.537238;stroke-width:1.32292;paint-order:markers stroke fill"
       inkscape:transform-center-y="45.922313"
       d="m -489.73041,-291.89787 v 22.81152 l 51.53846,32.6254 v -22.81153 z" />
    <rect
       style="fill:#ff0000;fill-opacity:0.537238;stroke-width:1.4392;paint-order:markers stroke fill"
       id="rect15834"
       width="104.18509"
       height="22.811453"
       x="-822.05811"
       y="-566.31696"
       transform="matrix(0.84493356,-0.53487127,0,1,0,0)" />
    <rect
       style="fill:#ff0000;fill-opacity:0.537238;stroke-width:1.4392;paint-order:markers stroke fill"
       id="rect15836"
       width="104.18509"
       height="22.811453"
       x="-822.05811"
       y="-358.6965"
       transform="matrix(0.84493356,0.53487127,0,-1,0,0)"
       inkscape:transform-center-y="45.922313" />
    <rect
       style="fill:#ff0000;fill-opacity:0.537238;stroke-width:1.4392;paint-order:markers stroke fill"
       id="rect15838"
       width="104.18509"
       height="22.811453"
       x="-775.93097"
       y="-398.17883"
       transform="matrix(0.84493356,-0.53487127,0,1,0,0)" />
    <rect
       style="fill:#ff0000;fill-opacity:0.537238;stroke-width:1.4392;paint-order:markers stroke fill"
       id="rect15840"
       width="104.18509"
       height="22.811453"
       x="-775.93097"
       y="-320.41635"
       transform="matrix(0.84493356,0.53487127,0,-1,0,0)"
       inkscape:transform-center-y="45.922313" />
    <rect
       style="fill:#ff0000;fill-opacity:0.537238;stroke-width:1.4392;paint-order:markers stroke fill"
       id="rect15842"
       width="104.18509"
       height="22.811453"
       x="-357.84442"
       y="-303.36908"
       transform="matrix(0.84493356,-0.53487127,0,1,0,0)" />
    <rect
       style="fill:#ff0000;fill-opacity:0.537238;stroke-width:1.4392;paint-order:markers stroke fill"
       id="rect15844"
       width="104.18509"
       height="22.811453"
       x="-357.84442"
       y="-102.24381"
       transform="matrix(0.84493356,0.53487127,0,-1,0,0)"
       inkscape:transform-center-y="45.922313" />
    <rect
       style="fill:#ff0000;fill-opacity:0.537238;stroke-width:1.4392;paint-order:markers stroke fill"
       id="rect15846"
       width="104.18509"
       height="22.811453"
       x="-284.17758"
       y="-159.39861"
       transform="matrix(0.84493356,-0.53487127,0,1,0,0)" />
    <rect
       style="fill:#ff0000;fill-opacity:0.537238;stroke-width:1.4392;paint-order:markers stroke fill"
       id="rect15848"
       width="104.18509"
       height="22.811453"
       x="-284.17758"
       y="-55.958488"
       transform="matrix(0.84493356,0.53487127,0,-1,0,0)"
       inkscape:transform-center-y="45.922313" />
    <rect
       style="fill:#ff0000;fill-opacity:0.537238;stroke-width:1.4392;paint-order:markers stroke fill"
       id="rect15850"
       width="104.18509"
       height="22.811453"
       x="-388.36267"
       y="-167.40971"
       transform="matrix(0.84493356,0.53487127,0,-1,0,0)"
       inkscape:transform-center-y="45.922313" />
    <rect
       style="fill:#ff0000;fill-opacity:0.537238;stroke-width:1.4392;paint-order:markers stroke fill"
       id="rect15852"
       width="104.18509"
       height="22.811453"
       x="-586.25397"
       y="-310.74457"
       transform="matrix(0.84493356,-0.53487127,0,1,0,0)" />
    <rect
       style="fill:#ff0000;fill-opacity:0.537238;stroke-width:1.4392;paint-order:markers stroke fill"
       id="rect15854"
       width="104.18509"
       height="22.811453"
       x="-586.25397"
       y="-339.20773"
       transform="matrix(0.84493356,0.53487127,0,-1,0,0)"
       inkscape:transform-center-y="45.922313" />
    <rect
       style="fill:#ff0000;fill-opacity:0.537238;stroke-width:1.4392;paint-order:markers stroke fill"
       id="rect15856"
       width="104.18509"
       height="22.811453"
       x="-512.58716"
       y="-166.77412"
       transform="matrix(0.84493356,-0.53487127,0,1,0,0)" />
    <rect
       style="fill:#ff0000;fill-opacity:0.537238;stroke-width:1.4392;paint-order:markers stroke fill"
       id="rect15858"
       width="104.18509"
       height="22.811453"
       x="-512.58716"
       y="-292.92239"
       transform="matrix(0.84493356,0.53487127,0,-1,0,0)"
       inkscape:transform-center-y="45.922313" />
    <path
       id="rect15860"
       style="fill:#ff0000;fill-opacity:0.537238;stroke-width:1.32292;paint-order:markers stroke fill"
       inkscape:transform-center-y="45.922313"
       d="m -473.20692,82.00625 v 22.81153 l 40.10504,25.38759 v -22.81153 z" />
    <rect
       style="fill:#ff0000;fill-opacity:0.537238;stroke-width:1.32292;paint-order:markers stroke fill"
       id="rect15989"
       width="72.38224"
       height="22.586849"
       x="-433.10208"
       y="-4.0571833" />
    <rect
       style="fill:#ff0000;fill-opacity:0.537238;stroke-width:1.4392;paint-order:markers stroke fill"
       id="rect16071"
       width="104.18509"
       height="22.811453"
       x="-857.19391"
       y="-313.40677"
       transform="matrix(0.84493356,-0.53487127,0,1,0,0)" />
    <rect
       style="fill:#ff0000;fill-opacity:0.537238;stroke-width:1.4392;paint-order:markers stroke fill"
       id="rect16073"
       width="104.18509"
       height="22.811453"
       x="-857.19391"
       y="-626.38147"
       transform="matrix(0.84493356,0.53487127,0,-1,0,0)"
       inkscape:transform-center-y="45.922313" />
    <rect
       style="fill:#ff0000;fill-opacity:0.537238;stroke-width:1.4392;paint-order:markers stroke fill"
       id="rect16075"
       width="104.18509"
       height="22.811453"
       x="-783.52704"
       y="-169.43633"
       transform="matrix(0.84493356,-0.53487127,0,1,0,0)" />
    <path
       id="rect16077"
       style="fill:#ff0000;fill-opacity:0.537238;stroke-width:1.32292;paint-order:markers stroke fill"
       inkscape:transform-center-y="45.922313"
       d="m -627.09882,138.19867 -34.92965,22.11184 v 0.4749 0.22479 l 88.02977,55.72529 v -22.81152 l -52.34926,-33.13856 h 36.70215 v -22.58674 z" />
    <path
       id="path16079"
       style="fill:#ff0000;fill-opacity:0.537238;stroke-width:1.32292;paint-order:markers stroke fill"
       inkscape:transform-center-y="45.922313"
       d="m -702.13314,224.26203 v 22.81153 l 40.10504,25.38759 v -22.81153 z" />
    <path
       id="rect16087"
       style="fill:#ff0000;fill-opacity:0.537238;stroke-width:1.32292;paint-order:markers stroke fill"
       d="M 119.59751,60.093141 31.568261,115.81891 v 22.81103 l 69.994699,44.30943 18.03455,-11.31766 v -0.0775 L 49.585764,127.22444 119.59751,82.904669 Z" />
    <path
       id="rect16091"
       style="fill:#ff0000;fill-opacity:0.537238;stroke-width:1.32292;paint-order:markers stroke fill"
       d="m 128.74114,108.93562 -34.92965,22.11184 v 0.4749 0.22479 l 70.01226,44.31977 -70.011744,44.31977 -40.105047,-25.38759 v 22.81153 l 40.105047,25.38759 88.029264,-55.72527 v -5e-4 -22.81103 -5e-4 L 129.492,131.52236 h 36.70215 v -22.58674 z" />
    <g
       id="g16270">
      <path
         id="path16264"
         style="fill:#ff0000;fill-opacity:0.537238;stroke-width:1.32292;paint-order:markers stroke fill"
         d="m 446.50473,-175.73897 -88.02925,55.72576 v 22.811034 l 69.9947,44.30943 18.03455,-11.31766 v -0.0775 l -70.01175,-44.319774 70.01175,-44.31977 z" />
      <path
         id="path16266"
         style="fill:#ff0000;fill-opacity:0.537238;stroke-width:1.32292;paint-order:markers stroke fill"
         d="m 455.64836,-126.8965 -34.92965,22.11184 v 0.4749 0.22479 l 70.01226,44.319774 -70.01174,44.31977 -40.10505,-25.38759 v 22.81153 l 40.10505,25.3875904 88.02926,-55.7252704 v -5e-4 -22.81103 -5e-4 l -52.34927,-33.138564 h 36.70215 v -22.58674 z" />
    </g>
  </g>
</svg>
